<svg width="32" height="32" viewBox="0 0 32 32" fill="none" xmlns="http://www.w3.org/2000/svg">
<path d="M28 10.334H4C3.45333 10.334 3 9.88065 3 9.33398C3 8.78732 3.45333 8.33398 4 8.33398H28C28.5467 8.33398 29 8.78732 29 9.33398C29 9.88065 28.5467 10.334 28 10.334Z" fill="white"/>
<path d="M28 17H4C3.45333 17 3 16.5467 3 16C3 15.4533 3.45333 15 4 15H28C28.5467 15 29 15.4533 29 16C29 16.5467 28.5467 17 28 17Z" fill="white"/>
<path d="M28 23.666H4C3.45333 23.666 3 23.2127 3 22.666C3 22.1193 3.45333 21.666 4 21.666H28C28.5467 21.666 29 22.1193 29 22.666C29 23.2127 28.5467 23.666 28 23.666Z" fill="white"/>
</svg>
